<svg id="Layer_1" data-name="Layer 1" xmlns="http://www.w3.org/2000/svg" xmlns:xlink="http://www.w3.org/1999/xlink" viewBox="0 0 50 50"><defs><style>.cls-1,.cls-4{fill:none;}.cls-2{fill:#54b948;}.cls-3{clip-path:url(#clip-path);}.cls-4{stroke:#999;stroke-linecap:round;stroke-miterlimit:10;stroke-width:1.5px;}</style><clipPath id="clip-path"><circle class="cls-1" cx="25" cy="25" r="20"/></clipPath></defs><title>01ico</title><path class="cls-2" d="M25,1.5A23.5,23.5,0,1,1,1.5,25,23.53,23.53,0,0,1,25,1.5M25,0A25,25,0,1,0,50,25,25,25,0,0,0,25,0Z"/><g class="cls-3"><path d="M19.06,26.12a15.23,15.23,0,0,0-9.27,14,.75.75,0,1,0,1.5,0,13.73,13.73,0,0,1,9.45-13A10.23,10.23,0,0,1,19.06,26.12Z"/><path d="M30.94,26.12a10.23,10.23,0,0,1-1.69,1,13.73,13.73,0,0,1,9.45,13,.75.75,0,1,0,1.5,0A15.23,15.23,0,0,0,30.94,26.12Z"/></g><circle class="cls-4" cx="25" cy="17.77" r="7.89"/></svg>