<svg id="Layer_1" data-name="Layer 1" xmlns="http://www.w3.org/2000/svg" xmlns:xlink="http://www.w3.org/1999/xlink" viewBox="0 0 50 50"><defs><style>.cls-1,.cls-2,.cls-5{fill:none;}.cls-2{stroke:#999;stroke-linejoin:round;}.cls-2,.cls-5{stroke-linecap:round;}.cls-3{fill:#54b948;}.cls-4{clip-path:url(#clip-path);}.cls-5{stroke:#000;stroke-miterlimit:10;stroke-width:1.5px;}.cls-6{fill:#999;}</style><clipPath id="clip-path"><circle class="cls-1" cx="25" cy="25" r="20"/></clipPath></defs><title>02ico</title><line class="cls-2" x1="17" y1="18" x2="23.5" y2="18"/><line class="cls-2" x1="17" y1="21" x2="22.5" y2="21"/><line class="cls-2" x1="17" y1="24" x2="23.5" y2="24"/><line class="cls-2" x1="17" y1="27" x2="31.5" y2="27"/><line class="cls-2" x1="17" y1="30" x2="27" y2="30"/><path class="cls-3" d="M25,1.5A23.5,23.5,0,1,1,1.5,25,23.53,23.53,0,0,1,25,1.5M25,0A25,25,0,1,0,50,25,25,25,0,0,0,25,0Z"/><g class="cls-4"><rect class="cls-5" x="12" y="12" width="26" height="34"/></g><rect class="cls-6" x="26.5" y="17.5" width="7" height="7"/></svg>