<svg id="Layer_1" data-name="Layer 1" xmlns="http://www.w3.org/2000/svg" xmlns:xlink="http://www.w3.org/1999/xlink" viewBox="0 0 50 50"><defs><style>.cls-1,.cls-4,.cls-5{fill:none;}.cls-2{fill:#54b948;}.cls-3{clip-path:url(#clip-path);}.cls-4{stroke:#999;}.cls-4,.cls-5{stroke-miterlimit:10;stroke-width:1.5px;}.cls-5{stroke:#000;stroke-linecap:round;}</style><clipPath id="clip-path"><circle class="cls-1" cx="25" cy="25" r="20"/></clipPath></defs><title>03ico</title><path class="cls-2" d="M25,1.5A23.5,23.5,0,1,1,1.5,25,23.53,23.53,0,0,1,25,1.5M25,0A25,25,0,1,0,50,25,25,25,0,0,0,25,0Z"/><g class="cls-3"><circle class="cls-4" cx="28.91" cy="18.29" r="7.33"/><path d="M23.35,26a14.2,14.2,0,0,0-8.61,13,.75.75,0,0,0,1.5,0A12.7,12.7,0,0,1,25,27,9.5,9.5,0,0,1,23.35,26Z"/><path d="M34.48,26a9.51,9.51,0,0,1-1.68,1A12.69,12.69,0,0,1,41.59,39a.75.75,0,0,0,1.5,0A14.2,14.2,0,0,0,34.48,26Z"/><line class="cls-5" x1="12.79" y1="13.27" x2="12.79" y2="23.53"/><line class="cls-5" x1="7.66" y1="18.4" x2="17.92" y2="18.4"/></g></svg>