<svg id="Layer_1" data-name="Layer 1" xmlns="http://www.w3.org/2000/svg" viewBox="0 0 50 50"><defs><style>.cls-1{fill:#54b948;}.cls-2{fill:#999;}</style></defs><title>04</title><path class="cls-1" d="M25,1.5A23.5,23.5,0,1,1,1.5,25,23.53,23.53,0,0,1,25,1.5M25,0A25,25,0,1,0,50,25,25,25,0,0,0,25,0Z"/><path class="cls-2" d="M20.44,31.53A11.09,11.09,0,1,1,28.29,12.6h0a11.09,11.09,0,0,1-7.84,18.93Zm0-20.68a9.59,9.59,0,1,0,6.78,2.81A9.53,9.53,0,0,0,20.44,10.85Z"/><path d="M36.87,38.87a2,2,0,0,1-1.41-.59l-6.36-6.36a2,2,0,0,1,2.83-2.83l6.36,6.36a2,2,0,0,1-1.41,3.41Z"/><path d="M20.19,26.06a.75.75,0,0,1-.75-.75V15.06a.75.75,0,0,1,1.5,0V25.31A.75.75,0,0,1,20.19,26.06Z"/><path d="M25.32,20.94H15.05a.75.75,0,1,1,0-1.5H25.32a.75.75,0,0,1,0,1.5Z"/></svg>